o Baseboard
v -0.2914213538169861 0.6000000238418579 0.44999998807907104
v 0 0.6000000238418579 0.44999998807907104
v 0 0.6000000238418579 0
v -0.2914213538169861 0.6000000238418579 0
v 0 0.5 0.5
v 0 0.5 5.551115123125783e-17
v 0 0.550000011920929 0.5
v -0.25 0.5 0.5
v -0.25 0.5 5.551115123125783e-17
v -0.5 0.25 0.5
v -0.5 0.25 5.551115123125783e-17
v -0.5 0 0.5
v -0.5 0 5.551115123125783e-17
v -0.6000000238418579 0.2914213538169861 0
v -0.6000000238418579 0 0
v -0.550000011920929 0 0.5
v -0.6000000238418579 0 0.44999998807907104
v -0.6000000238418579 0.2914213538169861 0.44999998807907104
v -0.27071067690849304 0.550000011920929 0.5
v -0.550000011920929 0.27071067690849304 0.5
vn 0 1 0
vn 0 1 0
vn 0 1 0
vn 0 1 0
vn 1 0 0
vn 1 0 0
vn 1 0 0
vn 1 0 0
vn 1 0 0
vn 0 -1 0
vn 0 -1 0
vn 0 -1 0
vn 0 -1 0
vn 0.7071067690849304 -0.7071067690849304 0
vn 0.7071067690849304 -0.7071067690849304 0
vn 0.7071067690849304 -0.7071067690849304 0
vn 0.7071067690849304 -0.7071067690849304 0
vn 1 0 0
vn 1 0 0
vn 1 0 0
vn 1 0 0
vn 0 0 -1
vn 0 0 -1
vn 0 0 -1
vn 0 0 -1
vn 0 0 -1
vn 0 0 -1
vn 0 0 -1
vn 0 0 -1
vn 0 -1 0
vn 0 -1 0
vn 0 -1 0
vn 0 -1 0
vn 0 -1 0
vn -1 0 0
vn -1 0 0
vn -1 0 0
vn -1 0 0
vn 0 0 1
vn 0 0 1
vn 0 0 1
vn 0 0 1
vn 0 0 1
vn 0 0 1
vn 0 0 1
vn 0 0 1
vn -0.7071067690849304 0.7071067690849304 0
vn -0.7071067690849304 0.7071067690849304 0
vn -0.7071067690849304 0.7071067690849304 0
vn -0.7071067690849304 0.7071067690849304 0
vn -0.7071067690849304 0 0.7071067690849304
vn -0.7071067690849304 0 0.7071067690849304
vn -0.7071067690849304 0 0.7071067690849304
vn -0.7071067690849304 0 0.7071067690849304
vn -0.5 0.5 0.7071067690849304
vn -0.5 0.5 0.7071067690849304
vn -0.5 0.5 0.7071067690849304
vn -0.5 0.5 0.7071067690849304
vn 0 0.7071067690849304 0.7071067690849304
vn 0 0.7071067690849304 0.7071067690849304
vn 0 0.7071067690849304 0.7071067690849304
vn 0 0.7071067690849304 0.7071067690849304
f 1//1 2//2 3//3 4//4
f 5//5 6//6 3//7 2//8
f 2//8 7//9 5//5
f 8//10 9//11 6//12 5//13
f 10//14 11//15 9//16 8//17
f 12//18 13//19 11//20 10//21
f 14//22 4//23 9//24 11//25
f 4//23 3//26 6//27 9//24
f 11//25 13//28 15//29 14//22
f 13//30 12//31 16//32
f 16//32 17//33 15//34 13//30
f 17//35 18//36 14//37 15//38
f 19//39 20//40 10//41 8//42
f 20//40 16//43 12//44 10//41
f 8//42 5//45 7//46 19//39
f 18//47 1//48 4//49 14//50
f 16//51 20//52 18//53 17//54
f 20//55 19//56 1//57 18//58
f 19//59 7//60 2//61 1//62
o Wall
v -0.5 0.25 3.5
v -0.5 0 3.5
v -0.5 0 13
v -0.5 0.25 13
v 0 0 14
v -1.5 0 14
v 0 0 3.5
v -0.25 0.5 3.5
v 0 0.5 3.5
v 0 0.5 13
v 0 1.5 14
v -0.25 0.5 13
v -0.6642135381698608 1.5 14
v -1.5 0.6642135381698608 14
vn -1 0 0
vn -1 0 0
vn -1 0 0
vn -1 0 0
vn 0 -1 0
vn 0 -1 0
vn 0 -1 0
vn 0 -1 0
vn 0 -1 0
vn 0 0 -1
vn 0 0 -1
vn 0 0 -1
vn 0 0 -1
vn 0 0 -1
vn 1 0 0
vn 1 0 0
vn 1 0 0
vn 1 0 0
vn 1 0 0
vn 0 1 0
vn 0 1 0
vn 0 1 0
vn 0 1 0
vn 0 0 1
vn 0 0 1
vn 0 0 1
vn 0 0 1
vn 0 0 1
vn -0.7071067690849304 0.7071067690849304 0
vn -0.7071067690849304 0.7071067690849304 0
vn -0.7071067690849304 0.7071067690849304 0
vn -0.7071067690849304 0.7071067690849304 0
vn -0.7071067690849304 0 -0.7071067690849304
vn -0.7071067690849304 0 -0.7071067690849304
vn -0.7071067690849304 0 -0.7071067690849304
vn -0.7071067690849304 0 -0.7071067690849304
vn -0.5 0.5 -0.7071067690849304
vn -0.5 0.5 -0.7071067690849304
vn -0.5 0.5 -0.7071067690849304
vn -0.5 0.5 -0.7071067690849304
vn 0 0.7071067690849304 -0.7071067690849304
vn 0 0.7071067690849304 -0.7071067690849304
vn 0 0.7071067690849304 -0.7071067690849304
vn 0 0.7071067690849304 -0.7071067690849304
f 21//63 22//64 23//65 24//66
f 25//67 26//68 23//69
f 23//69 22//70 27//71 25//67
f 27//72 22//73 21//74
f 21//74 28//75 29//76 27//72
f 25//77 27//78 29//79 30//80
f 30//80 31//81 25//77
f 29//82 28//83 32//84 30//85
f 25//86 31//87 33//88
f 33//88 34//89 26//90 25//86
f 28//91 21//92 24//93 32//94
f 26//95 34//96 24//97 23//98
f 34//99 33//100 32//101 24//102
f 33//103 31//104 30//105 32//106
o Wall
v -0.5 0 3
v 0 0 3
v 0 0 3.25
v -0.5 0 3.25
v -0.5 0.25 3
v -0.5 0.25 3.25
v 0 0.5 3.25
v -0.25 0.5 3.25
v -0.25 0.5 3
v -2.7755575615628914e-17 0.5 3
vn 0 -1 0
vn 0 -1 0
vn 0 -1 0
vn 0 -1 0
vn -1 0 0
vn -1 0 0
vn -1 0 0
vn -1 0 0
vn 0 0 1
vn 0 0 1
vn 0 0 1
vn 0 0 1
vn 0 0 1
vn 0 0 -1
vn 0 0 -1
vn 0 0 -1
vn 0 0 -1
vn 0 0 -1
vn -0.7071067690849304 0.7071067690849304 0
vn -0.7071067690849304 0.7071067690849304 0
vn -0.7071067690849304 0.7071067690849304 0
vn -0.7071067690849304 0.7071067690849304 0
vn 0 1 0
vn 0 1 0
vn 0 1 0
vn 0 1 0
vn 1 0 0
vn 1 0 0
vn 1 0 0
vn 1 0 0
f 35//107 36//108 37//109 38//110
f 39//111 35//112 38//113 40//114
f 37//115 41//116 42//117
f 42//117 40//118 38//119 37//115
f 36//120 35//121 39//122
f 39//122 43//123 44//124 36//120
f 43//125 39//126 40//127 42//128
f 44//129 43//130 42//131 41//132
f 36//133 44//134 41//135 37//136
o Wall
v -2.7755575615628914e-17 0.5 2
v 0 0 2
v 0 0 5.551115123125783e-17
v 0 0.5 5.551115123125783e-17
v -0.25 0.5 2
v -0.25 0.5 5.551115123125783e-17
v -0.5 0 5.551115123125783e-17
v -0.5 0.25 5.551115123125783e-17
v -0.5 0.25 2
v -0.5 0 2
vn 1 0 0
vn 1 0 0
vn 1 0 0
vn 1 0 0
vn 0 1 0
vn 0 1 0
vn 0 1 0
vn 0 1 0
vn 0 0 -1
vn 0 0 -1
vn 0 0 -1
vn 0 0 -1
vn 0 0 -1
vn 0 0 1
vn 0 0 1
vn 0 0 1
vn 0 0 1
vn 0 0 1
vn -0.7071067690849304 0.7071067690849304 0
vn -0.7071067690849304 0.7071067690849304 0
vn -0.7071067690849304 0.7071067690849304 0
vn -0.7071067690849304 0.7071067690849304 0
vn -1 0 0
vn -1 0 0
vn -1 0 0
vn -1 0 0
vn 0 -1 0
vn 0 -1 0
vn 0 -1 0
vn 0 -1 0
f 45//137 46//138 47//139 48//140
f 49//141 45//142 48//143 50//144
f 47//145 51//146 52//147
f 52//147 50//148 48//149 47//145
f 46//150 45//151 49//152
f 49//152 53//153 54//154 46//150
f 53//155 49//156 50//157 52//158
f 54//159 53//160 52//161 51//162
f 46//163 54//164 51//165 47//166
o Highlight
v 0 0 2
v 0 0 3
v -0.5 0 3
v -0.5 0 2
v -0.5 0.25 3
v -0.5 0.25 2
v 0 0.5 3
v -0.25 0.5 3
v -0.25 0.5 2
v 0 0.5 2
vn 0 -1 0
vn 0 -1 0
vn 0 -1 0
vn 0 -1 0
vn -1 0 0
vn -1 0 0
vn -1 0 0
vn -1 0 0
vn 0 0 1
vn 0 0 1
vn 0 0 1
vn 0 0 1
vn 0 0 1
vn 0 0 -1
vn 0 0 -1
vn 0 0 -1
vn 0 0 -1
vn 0 0 -1
vn -0.7071067690849304 0.7071067690849304 0
vn -0.7071067690849304 0.7071067690849304 0
vn -0.7071067690849304 0.7071067690849304 0
vn -0.7071067690849304 0.7071067690849304 0
vn 0 1 0
vn 0 1 0
vn 0 1 0
vn 0 1 0
vn 1 0 0
vn 1 0 0
vn 1 0 0
vn 1 0 0
f 55//167 56//168 57//169 58//170
f 58//171 57//172 59//173 60//174
f 56//175 61//176 62//177
f 62//177 59//178 57//179 56//175
f 55//180 58//181 60//182
f 60//182 63//183 64//184 55//180
f 60//185 59//186 62//187 63//188
f 63//189 62//190 61//191 64//192
f 64//193 61//194 56//195 55//196
o Highlight
v 0 0.5 3.25
v 0 0.5 3.5
v 0 0 3.5
v 0 0 3.25
v -0.25 0.5 3.25
v -0.25 0.5 3.5
v -0.5 0.25 3.5
v -0.5 0 3.5
v -0.5 0 3.25
v -0.5 0.25 3.25
vn 1 0 0
vn 1 0 0
vn 1 0 0
vn 1 0 0
vn 0 1 0
vn 0 1 0
vn 0 1 0
vn 0 1 0
vn 0 0 1
vn 0 0 1
vn 0 0 1
vn 0 0 1
vn 0 0 1
vn 0 0 -1
vn 0 0 -1
vn 0 0 -1
vn 0 0 -1
vn 0 0 -1
vn -0.7071067690849304 0.7071067690849304 0
vn -0.7071067690849304 0.7071067690849304 0
vn -0.7071067690849304 0.7071067690849304 0
vn -0.7071067690849304 0.7071067690849304 0
vn -1 0 0
vn -1 0 0
vn -1 0 0
vn -1 0 0
vn 0 -1 0
vn 0 -1 0
vn 0 -1 0
vn 0 -1 0
f 65//197 66//198 67//199 68//200
f 69//201 70//202 66//203 65//204
f 67//205 66//206 70//207
f 70//207 71//208 72//209 67//205
f 68//210 73//211 74//212
f 74//212 69//213 65//214 68//210
f 74//215 71//216 70//217 69//218
f 73//219 72//220 71//221 74//222
f 68//223 67//224 72//225 73//226
