o Base
v -1.7999999523162842 -1.7999999523162842 14.449999809265137
v -1.7999999523162842 1.7999999523162842 14.449999809265137
v -1.7999999523162842 1.7999999523162842 14.649999618530273
v -1.7999999523162842 -1.7999999523162842 14.649999618530273
v 1.7999999523162842 1.7999999523162842 14.649999618530273
v 1.7999999523162842 -1.7999999523162842 14.649999618530273
v 1.7999999523162842 -1.7999999523162842 14.449999809265137
v 1.7999999523162842 1.7999999523162842 14.449999809265137
v 1.850000023841858 -1.850000023841858 14.399999618530273
v -1.850000023841858 -1.850000023841858 14.399999618530273
v 1.850000023841858 1.850000023841858 14.399999618530273
v -1.850000023841858 1.850000023841858 14.399999618530273
v 1.9500000476837158 -1.9500000476837158 14.399999618530273
v -1.9500000476837158 -1.9500000476837158 14.399999618530273
v -1.9500000476837158 1.9500000476837158 14.399999618530273
v 1.9500000476837158 1.9500000476837158 14.399999618530273
v -2 -2 14.449999809265137
v -2 2 14.449999809265137
v 2 -2 14.449999809265137
v 2 2 14.449999809265137
v -2 -2 14.75
v -2 2 14.75
v 2 2 14.75
v 2 -2 14.75
vn 1 0 0
vn 1 0 0
vn 1 0 0
vn 1 0 0
vn 0 0 -1
vn 0 0 -1
vn 0 0 -1
vn 0 0 -1
vn 0 1 0
vn 0 1 0
vn 0 1 0
vn 0 1 0
vn -1 0 0
vn -1 0 0
vn -1 0 0
vn -1 0 0
vn 0 -1 0
vn 0 -1 0
vn 0 -1 0
vn 0 -1 0
vn 0 0.7071067690849304 -0.7071067690849304
vn 0 0.7071067690849304 -0.7071067690849304
vn 0 0.7071067690849304 -0.7071067690849304
vn 0 0.7071067690849304 -0.7071067690849304
vn -0.7071067690849304 0 -0.7071067690849304
vn -0.7071067690849304 0 -0.7071067690849304
vn -0.7071067690849304 0 -0.7071067690849304
vn -0.7071067690849304 0 -0.7071067690849304
vn 0.7071067690849304 0 -0.7071067690849304
vn 0.7071067690849304 0 -0.7071067690849304
vn 0.7071067690849304 0 -0.7071067690849304
vn 0.7071067690849304 0 -0.7071067690849304
vn 0 -0.7071067690849304 -0.7071067690849304
vn 0 -0.7071067690849304 -0.7071067690849304
vn 0 -0.7071067690849304 -0.7071067690849304
vn 0 -0.7071067690849304 -0.7071067690849304
vn 0 0 -1
vn 0 0 -1
vn 0 0 -1
vn 0 0 -1
vn 0 0 -1
vn 0 0 -1
vn 0 0 -1
vn 0 0 -1
vn -0.7071067690849304 0 -0.7071067690849304
vn -0.7071067690849304 0 -0.7071067690849304
vn -0.7071067690849304 0 -0.7071067690849304
vn -0.7071067690849304 0 -0.7071067690849304
vn 0 -0.7071067690849304 -0.7071067690849304
vn 0 -0.7071067690849304 -0.7071067690849304
vn 0 -0.7071067690849304 -0.7071067690849304
vn 0 -0.7071067690849304 -0.7071067690849304
vn 0 0.7071067690849304 -0.7071067690849304
vn 0 0.7071067690849304 -0.7071067690849304
vn 0 0.7071067690849304 -0.7071067690849304
vn 0 0.7071067690849304 -0.7071067690849304
vn -1 0 0
vn -1 0 0
vn -1 0 0
vn -1 0 0
vn 0 0 1
vn 0 0 1
vn 0 0 1
vn 0 0 1
vn 1 0 0
vn 1 0 0
vn 1 0 0
vn 1 0 0
vn 0 -1 2.220446049250313e-16
vn 0 -1 2.220446049250313e-16
vn 0 -1 2.220446049250313e-16
vn 0 -1 2.220446049250313e-16
vn 0 1 -2.220446049250313e-16
vn 0 1 -2.220446049250313e-16
vn 0 1 -2.220446049250313e-16
vn 0 1 -2.220446049250313e-16
vn 0.7071067690849304 0 -0.7071067690849304
vn 0.7071067690849304 0 -0.7071067690849304
vn 0.7071067690849304 0 -0.7071067690849304
vn 0.7071067690849304 0 -0.7071067690849304
f 1//1 2//2 3//3 4//4
f 5//5 6//6 4//7 3//8
f 7//9 1//10 4//11 6//12
f 8//13 7//14 6//15 5//16
f 2//17 8//18 5//19 3//20
f 1//21 7//22 9//23 10//24
f 7//25 8//26 11//27 9//28
f 10//29 12//30 2//31 1//32
f 8//33 2//34 12//35 11//36
f 13//37 14//38 10//39 9//40
f 14//38 15//41 12//42 10//39
f 9//40 11//43 16//44 13//37
f 11//43 12//42 15//41 16//44
f 15//45 14//46 17//47 18//48
f 14//49 13//50 19//51 17//52
f 18//53 20//54 16//55 15//56
f 18//57 17//58 21//59 22//60
f 23//61 22//62 21//63 24//64
f 19//65 20//66 23//67 24//68
f 17//69 19//70 24//71 21//72
f 20//73 18//74 22//75 23//76
f 13//77 16//78 20//79 19//80
o Light
v -1.7999999523162842 1.7999999523162842 14.649999618530273
v 1.7999999523162842 1.7999999523162842 14.649999618530273
v 1.7999999523162842 1.7999999523162842 14.600000381469727
v -1.7999999523162842 1.7999999523162842 14.600000381469727
v 1.7999999523162842 1.7999999523162842 14.550000190734863
v -1.7999999523162842 1.7999999523162842 14.550000190734863
v -1.7999999523162842 -1.7999999523162842 14.649999618530273
v 1.7999999523162842 -1.7999999523162842 14.649999618530273
v 1.7999999523162842 -1.7999999523162842 14.600000381469727
v 1.7999999523162842 -1.7999999523162842 14.550000190734863
v -1.7999999523162842 -1.7999999523162842 14.600000381469727
v -1.7999999523162842 -1.7999999523162842 14.550000190734863
v 1.7999999523162842 1.7999999523162842 14.524999618530273
v -1.7999999523162842 1.7999999523162842 14.524999618530273
v 1.7999999523162842 1.7999999523162842 14.5
v -1.7999999523162842 1.7999999523162842 14.5
v 1.7999999523162842 -1.7999999523162842 14.524999618530273
v 1.7999999523162842 -1.7999999523162842 14.5
v -1.7999999523162842 -1.7999999523162842 14.524999618530273
v -1.7999999523162842 -1.7999999523162842 14.5
vn 7.155734338404329e-17 1 0
vn 7.155734338404329e-17 1 0
vn 7.155734338404329e-17 1 0
vn 7.155734338404329e-17 1 0
vn 7.155734338404329e-17 1 0
vn 7.155734338404329e-17 1 0
vn 0 0 1
vn 0 0 1
vn 0 0 1
vn 0 0 1
vn 1 -7.155734338404329e-17 0
vn 1 -7.155734338404329e-17 0
vn 1 -7.155734338404329e-17 0
vn 1 -7.155734338404329e-17 0
vn 1 -7.155734338404329e-17 0
vn 1 -7.155734338404329e-17 0
vn -7.155734338404329e-17 -1 0
vn -7.155734338404329e-17 -1 0
vn -7.155734338404329e-17 -1 0
vn -7.155734338404329e-17 -1 0
vn -7.155734338404329e-17 -1 0
vn -7.155734338404329e-17 -1 0
vn -1 5.204170427930421e-17 0
vn -1 5.204170427930421e-17 0
vn -1 5.204170427930421e-17 0
vn -1 5.204170427930421e-17 0
vn -1 5.204170427930421e-17 0
vn -1 5.204170427930421e-17 0
vn 2.0339632755828063e-16 1 0
vn 2.0339632755828063e-16 1 0
vn 2.0339632755828063e-16 1 0
vn 2.0339632755828063e-16 1 0
vn 2.0339632755828063e-16 1 0
vn 2.0339632755828063e-16 1 0
vn 1 -2.0339632755828063e-16 0
vn 1 -2.0339632755828063e-16 0
vn 1 -2.0339632755828063e-16 0
vn 1 -2.0339632755828063e-16 0
vn 1 -2.0339632755828063e-16 0
vn 1 -2.0339632755828063e-16 0
vn -2.0339632755828063e-16 -1 0
vn -2.0339632755828063e-16 -1 0
vn -2.0339632755828063e-16 -1 0
vn -2.0339632755828063e-16 -1 0
vn -2.0339632755828063e-16 -1 0
vn -2.0339632755828063e-16 -1 0
vn -1 1.1145598333150986e-16 0
vn -1 1.1145598333150986e-16 0
vn -1 1.1145598333150986e-16 0
vn -1 1.1145598333150986e-16 0
vn -1 1.1145598333150986e-16 0
vn -1 1.1145598333150986e-16 0
vn 0 0 -1
vn 0 0 -1
vn 0 0 -1
vn 0 0 -1
f 25//81 26//82 27//83 28//84
f 28//84 27//83 29//85 30//86
f 25//87 31//88 32//89 26//90
f 26//91 32//92 33//93 27//94
f 27//94 33//93 34//95 29//96
f 32//97 31//98 35//99 33//100
f 33//100 35//99 36//101 34//102
f 31//103 25//104 28//105 35//106
f 35//106 28//105 30//107 36//108
f 30//109 29//110 37//111 38//112
f 38//112 37//111 39//113 40//114
f 29//115 34//116 41//117 37//118
f 37//118 41//117 42//119 39//120
f 34//121 36//122 43//123 41//124
f 41//124 43//123 44//125 42//126
f 36//127 30//128 38//129 43//130
f 43//130 38//129 40//131 44//132
f 39//133 42//134 44//135 40//136
o Glass
v -1.7999999523162842 1.7999999523162842 14.5
v 1.7999999523162842 1.7999999523162842 14.5
v 1.7999999523162842 1.7999999523162842 14.475000381469727
v -1.7999999523162842 1.7999999523162842 14.475000381469727
v 1.7999999523162842 1.7999999523162842 14.449999809265137
v -1.7999999523162842 1.7999999523162842 14.449999809265137
v 1.7999999523162842 -1.7999999523162842 14.5
v 1.7999999523162842 -1.7999999523162842 14.475000381469727
v 1.7999999523162842 -1.7999999523162842 14.449999809265137
v -1.7999999523162842 -1.7999999523162842 14.5
v -1.7999999523162842 -1.7999999523162842 14.475000381469727
v -1.7999999523162842 -1.7999999523162842 14.449999809265137
vn 2.0339632755828063e-16 1 0
vn 2.0339632755828063e-16 1 0
vn 2.0339632755828063e-16 1 0
vn 2.0339632755828063e-16 1 0
vn 2.0339632755828063e-16 1 0
vn 2.0339632755828063e-16 1 0
vn 1 -2.0339632755828063e-16 0
vn 1 -2.0339632755828063e-16 0
vn 1 -2.0339632755828063e-16 0
vn 1 -2.0339632755828063e-16 0
vn 1 -2.0339632755828063e-16 0
vn 1 -2.0339632755828063e-16 0
vn -2.0339632755828063e-16 -1 0
vn -2.0339632755828063e-16 -1 0
vn -2.0339632755828063e-16 -1 0
vn -2.0339632755828063e-16 -1 0
vn -2.0339632755828063e-16 -1 0
vn -2.0339632755828063e-16 -1 0
vn -1 -2.0816681711721685e-17 0
vn -1 -2.0816681711721685e-17 0
vn -1 -2.0816681711721685e-17 0
vn -1 -2.0816681711721685e-17 0
vn -1 -2.0816681711721685e-17 0
vn -1 -2.0816681711721685e-17 0
vn 0 0 -1
vn 0 0 -1
vn 0 0 -1
vn 0 0 -1
vn 0 0 1
vn 0 0 1
vn 0 0 1
vn 0 0 1
f 45//137 46//138 47//139 48//140
f 48//140 47//139 49//141 50//142
f 46//143 51//144 52//145 47//146
f 47//146 52//145 53//147 49//148
f 51//149 54//150 55//151 52//152
f 52//152 55//151 56//153 53//154
f 54//155 45//156 48//157 55//158
f 55//158 48//157 50//159 56//160
f 49//161 53//162 56//163 50//164
f 45//165 54//166 51//167 46//168
